# xmcd
#
# Track frame offsets:
#	150
#	39263
#	83600
#	136425
#	167175
#	203100
#
# Disc length: 3279 seconds
#
# Revision: 1
# Processed by: cddbd v1.5.2PL0 Copyright (c) Steve Scherf et al.
# Submitted via: audiograbber 1.83.01
#
DISCID=460ccd06
DTITLE=Grateful Dead - 93-08-22 Autzen Stadium, Eugene OR
DYEAR=1900
DGENRE=
TTITLE0=The Music Never Stopped
TTITLE1=Help On The Way > Slipknot!
TTITLE2=Franklin's Tower
TTITLE3=Samson and Delilah
TTITLE4=Ship Of Fools
TTITLE5=Corinna
EXTD=
EXTT0=
EXTT1=
EXTT2=
EXTT3=
EXTT4=
EXTT5=
PLAYORDER=
